<svg width='100%' height='100%'  viewBox="0 0 20 20" fill="none" xmlns="http://www.w3.org/2000/svg">
<path d="M9.99999 10.8779L5.77241 15.1055C5.65703 15.2209 5.512 15.2799 5.33732 15.2826C5.16266 15.2853 5.01496 15.2262 4.89424 15.1055C4.7735 14.9848 4.71313 14.8384 4.71313 14.6664C4.71313 14.4944 4.7735 14.3481 4.89424 14.2273L9.1218 9.99974L4.89424 5.77216C4.77885 5.65679 4.71982 5.51176 4.71716 5.33708C4.71447 5.16241 4.7735 5.01472 4.89424 4.89399C5.01496 4.77326 5.16132 4.71289 5.33332 4.71289C5.50532 4.71289 5.65168 4.77326 5.77241 4.89399L9.99999 9.12156L14.2276 4.89399C14.3429 4.77861 14.488 4.71958 14.6627 4.71691C14.8373 4.71423 14.985 4.77326 15.1057 4.89399C15.2265 5.01472 15.2868 5.16108 15.2868 5.33308C15.2868 5.50508 15.2265 5.65144 15.1057 5.77216L10.8782 9.99974L15.1057 14.2273C15.2211 14.3427 15.2802 14.4877 15.2828 14.6624C15.2855 14.8371 15.2265 14.9848 15.1057 15.1055C14.985 15.2262 14.8387 15.2866 14.6667 15.2866C14.4947 15.2866 14.3483 15.2262 14.2276 15.1055L9.99999 10.8779Z" fill="#8F95B2"/>
</svg>
