<svg width="22" height="22" viewBox="0 0 22 22" fill="none" xmlns="http://www.w3.org/2000/svg">
<path d="M4.58335 17.4173H5.73975L15.1233 8.03377L13.9669 6.87737L4.58335 16.2609V17.4173ZM4.0369 18.7923C3.80216 18.7923 3.60539 18.7129 3.44659 18.5541C3.28778 18.3953 3.20837 18.1985 3.20837 17.9637V16.3755C3.20837 16.1519 3.25127 15.9389 3.33707 15.7363C3.42286 15.5337 3.54096 15.3572 3.69139 15.2068L15.2996 3.60386C15.4382 3.47796 15.5912 3.38067 15.7587 3.31199C15.9262 3.24332 16.1019 3.20898 16.2857 3.20898C16.4694 3.20898 16.6475 3.2416 16.8198 3.30684C16.9921 3.37206 17.1446 3.47577 17.2774 3.61796L18.3968 4.75144C18.539 4.88423 18.6403 5.03704 18.7009 5.20986C18.7614 5.38267 18.7917 5.55548 18.7917 5.72828C18.7917 5.91261 18.7602 6.08852 18.6972 6.25601C18.6343 6.42351 18.5341 6.57657 18.3968 6.71519L6.79389 18.3093C6.64347 18.4597 6.46696 18.5778 6.26438 18.6636C6.06178 18.7494 5.84871 18.7923 5.62517 18.7923H4.0369ZM14.5349 7.46571L13.9669 6.87737L15.1233 8.03377L14.5349 7.46571Z" fill="#8F95B2"/>
</svg>
