<svg width="70" height="18" viewBox="0 0 70 18" fill="none" xmlns="http://www.w3.org/2000/svg">
<path d="M11.3818 17L10.1616 11.9141C10.1001 11.6543 10.0386 11.3604 9.97705 11.0322C9.91553 10.6973 9.854 10.3623 9.79248 10.0273C9.73779 9.69238 9.68994 9.38477 9.64893 9.10449C9.60791 8.82422 9.57715 8.60547 9.55664 8.44824H9.49512C9.47461 8.60547 9.44043 8.82764 9.39258 9.11475C9.34473 9.39502 9.29004 9.70605 9.22852 10.0479C9.16699 10.3896 9.09863 10.7383 9.02344 11.0938C8.95508 11.4424 8.88672 11.7671 8.81836 12.0679L7.63916 17H3.4248L0.256348 5.38232H4.2041L5.14746 9.84277C5.21582 10.1709 5.28418 10.564 5.35254 11.022C5.42773 11.4731 5.49268 11.9346 5.54736 12.4062C5.60889 12.8711 5.6499 13.2881 5.67041 13.6572H5.73193C5.74561 13.377 5.77637 13.0557 5.82422 12.6934C5.87891 12.3242 5.93701 11.9585 5.99854 11.5962C6.06689 11.2339 6.12842 10.916 6.18311 10.6426C6.23779 10.3623 6.27539 10.1709 6.2959 10.0684L7.37256 5.38232H11.8022L12.7866 10.1299C12.8481 10.3965 12.9165 10.7383 12.9917 11.1553C13.0737 11.5654 13.1489 11.9961 13.2173 12.4473C13.2925 12.8916 13.3472 13.2949 13.3813 13.6572H13.4429C13.4702 13.2812 13.5112 12.854 13.5659 12.3755C13.6206 11.897 13.6821 11.4321 13.7505 10.981C13.8257 10.5229 13.8975 10.1436 13.9658 9.84277L14.9912 5.38232H18.8569L15.668 17H11.3818ZM24.0273 5.38232V17H20.0181V5.38232H24.0273ZM22.0381 0.706543C22.6123 0.706543 23.1113 0.826172 23.5352 1.06543C23.9658 1.30469 24.1812 1.77979 24.1812 2.49072C24.1812 3.18115 23.9658 3.64941 23.5352 3.89551C23.1113 4.13477 22.6123 4.25439 22.0381 4.25439C21.4502 4.25439 20.9478 4.13477 20.5308 3.89551C20.1206 3.64941 19.9155 3.18115 19.9155 2.49072C19.9155 1.77979 20.1206 1.30469 20.5308 1.06543C20.9478 0.826172 21.4502 0.706543 22.0381 0.706543ZM30.3564 1.04492V7.32031C30.3564 7.79199 30.3359 8.31836 30.2949 8.89941C30.2607 9.47363 30.2061 9.99658 30.1309 10.4683H30.2129C30.3701 10.229 30.5684 9.92822 30.8076 9.56592C31.0469 9.20361 31.2622 8.90283 31.4536 8.66357L34.0581 5.38232H38.5288L34.499 10.3247L38.7852 17H34.2017L31.6587 12.8369L30.3564 13.8315V17H26.3267V1.04492H30.3564ZM43.6992 5.38232V17H39.6899V5.38232H43.6992ZM41.71 0.706543C42.2842 0.706543 42.7832 0.826172 43.207 1.06543C43.6377 1.30469 43.853 1.77979 43.853 2.49072C43.853 3.18115 43.6377 3.64941 43.207 3.89551C42.7832 4.13477 42.2842 4.25439 41.71 4.25439C41.1221 4.25439 40.6196 4.13477 40.2026 3.89551C39.7925 3.64941 39.5874 3.18115 39.5874 2.49072C39.5874 1.77979 39.7925 1.30469 40.2026 1.06543C40.6196 0.826172 41.1221 0.706543 41.71 0.706543ZM51.228 5.17725C52.356 5.17725 53.3301 5.37549 54.1504 5.77197C54.9707 6.16162 55.603 6.74951 56.0474 7.53564C56.4917 8.32178 56.7139 9.30615 56.7139 10.4888V12.2729H49.5464C49.5806 12.8813 49.8062 13.3804 50.2231 13.77C50.647 14.1597 51.269 14.3545 52.0894 14.3545C52.814 14.3545 53.4771 14.2827 54.0786 14.1392C54.687 13.9956 55.3125 13.7734 55.9551 13.4727V16.354C55.3945 16.6479 54.7827 16.8633 54.1196 17C53.4565 17.1367 52.6191 17.2051 51.6074 17.2051C50.4385 17.2051 49.3926 16.9966 48.4697 16.5796C47.5469 16.1626 46.8188 15.5166 46.2856 14.6416C45.7593 13.7666 45.4961 12.6421 45.4961 11.2681C45.4961 9.87354 45.7354 8.72852 46.2139 7.83301C46.6924 6.93066 47.3623 6.26416 48.2236 5.8335C49.085 5.396 50.0864 5.17725 51.228 5.17725ZM51.3716 7.90479C50.8999 7.90479 50.5034 8.05518 50.1821 8.35596C49.8677 8.6499 49.6831 9.11475 49.6284 9.75049H53.0737C53.0669 9.40869 52.9985 9.09766 52.8687 8.81738C52.7388 8.53711 52.5474 8.31494 52.2944 8.15088C52.0483 7.98682 51.7407 7.90479 51.3716 7.90479ZM62.0894 17.2051C60.8931 17.2051 59.9087 16.6958 59.1362 15.6772C58.3638 14.6587 57.9775 13.1685 57.9775 11.2065C57.9775 9.22412 58.374 7.72363 59.167 6.70508C59.96 5.68652 60.9854 5.17725 62.2432 5.17725C62.7627 5.17725 63.2104 5.25244 63.5864 5.40283C63.9624 5.55322 64.2871 5.7583 64.5605 6.01807C64.8408 6.271 65.0835 6.55811 65.2886 6.87939H65.3706C65.3228 6.58545 65.2783 6.18213 65.2373 5.66943C65.1963 5.1499 65.1758 4.64404 65.1758 4.15186V1.04492H69.2158V17H66.1909L65.3296 15.5337H65.1758C64.9912 15.8413 64.7588 16.1216 64.4785 16.3745C64.2051 16.6274 63.8701 16.8291 63.4736 16.9795C63.084 17.1299 62.6226 17.2051 62.0894 17.2051ZM63.73 14.0366C64.3726 14.0366 64.8237 13.835 65.0835 13.4316C65.3501 13.0215 65.4937 12.3994 65.5142 11.5654V11.2476C65.5142 10.3315 65.3843 9.63086 65.1245 9.14551C64.8716 8.65332 64.3931 8.40723 63.689 8.40723C63.2104 8.40723 62.814 8.63965 62.4995 9.10449C62.1851 9.56934 62.0278 10.2905 62.0278 11.2681C62.0278 12.2319 62.1851 12.936 62.4995 13.3804C62.8208 13.8179 63.231 14.0366 63.73 14.0366Z" fill="#C6CADA"/>
</svg>
